<svg version="1.1" id="Layer_1" xmlns="http://www.w3.org/2000/svg" xmlns:xlink="http://www.w3.org/1999/xlink" x="0px" y="0px"
	 width="100%" viewBox="0 0 4096 1024" enable-background="new 0 0 4096 1024" xml:space="preserve">
<path fill="#EE0000" opacity="1.000000" stroke="none" 
	d="
M1431.000000,0.999978 
	C2080.365967,1.000000 2729.732178,1.000000 3379.425781,1.321016 
	C3376.533691,4.895408 3373.356201,8.191675 3370.087646,11.394904 
	C3355.126953,26.055817 3340.138428,40.688461 3325.164062,55.335308 
	C3309.713135,70.448135 3294.267822,85.566780 3278.818115,100.680763 
	C3263.606445,115.561813 3248.391602,130.439209 3233.179688,145.319931 
	C3217.729736,160.433899 3202.282715,175.550812 3186.833008,190.664841 
	C3171.621094,205.545731 3156.406738,220.423737 3141.195068,235.304672 
	C3125.745117,250.418625 3110.298096,265.535339 3094.848389,280.649292 
	C3079.636719,295.530273 3064.407715,310.393524 3049.214355,325.293213 
	C3030.451660,343.692932 3011.637695,362.041779 2993.049072,380.615967 
	C2989.857666,383.804810 2986.766846,385.101807 2982.232910,385.100616 
	C2566.111084,384.992279 2149.989258,384.971741 1733.867554,385.043762 
	C1692.267822,385.050964 1650.667847,385.633423 1609.068604,386.012695 
	C1578.967041,386.287170 1548.865967,386.614838 1518.766235,387.032166 
	C1509.662476,387.158386 1500.559448,387.569611 1491.464233,388.014648 
	C1472.322510,388.951355 1453.177490,389.857117 1434.050903,391.050476 
	C1422.724854,391.757111 1411.399902,392.718628 1400.130981,394.045685 
	C1382.241821,396.152313 1364.237915,397.817261 1346.578979,401.211456 
	C1324.206543,405.511688 1301.907349,410.561768 1279.983154,416.732941 
	C1251.925171,424.630585 1225.438843,436.640839 1200.020386,450.979309 
	C1176.918701,464.010895 1154.709961,478.375397 1134.287231,495.310669 
	C1112.280273,513.559631 1090.428467,532.006653 1068.872681,550.784790 
	C1056.892700,561.221191 1045.569824,572.421143 1034.104614,583.436829 
	C1020.682617,596.332642 1007.424194,609.398865 994.101013,622.397400 
	C980.062134,636.094177 966.029053,649.796936 951.996155,663.499817 
	C937.724731,677.435547 923.458069,691.376038 909.186523,705.311584 
	C895.153381,719.014282 881.116699,732.713318 867.081909,746.414307 
	C853.047058,760.115234 839.011108,773.814941 824.978088,787.517761 
	C810.706726,801.453430 796.439758,815.393677 782.168213,829.329163 
	C768.135071,843.031860 754.096802,856.729187 740.064148,870.432434 
	C725.673950,884.484985 711.290100,898.543945 696.899536,912.596130 
	C682.985779,926.182556 669.066833,939.763733 655.150635,953.347656 
	C641.115356,967.048035 627.042358,980.710205 613.059204,994.463684 
	C604.148804,1003.227783 595.345825,1012.101868 586.568542,1020.999451 
	C585.479614,1022.103394 584.845093,1023.655579 584.000000,1025.000000 
	C391.166656,1025.000000 198.333328,1025.002197 5.500010,1024.958618 
	C3.999931,1024.958252 2.499998,1024.333374 1.352788,1023.490723 
	C2.860842,1022.097046 4.129044,1021.326782 5.155035,1020.311707 
	C39.950901,985.887207 74.728439,951.444214 109.498581,916.993713 
	C147.110062,879.727966 184.711456,842.452087 222.317429,805.180786 
	C259.686584,768.144104 297.055817,731.107544 334.424957,694.070923 
	C372.030945,656.799622 409.661011,619.552673 447.237030,582.251160 
	C499.242950,530.625183 551.180542,478.930237 603.203613,427.321533 
	C626.002380,404.704346 648.959473,382.246948 671.809814,359.681732 
	C701.656433,330.207489 731.447632,300.677002 761.313843,271.222656 
	C767.092102,265.524078 773.047852,260.001221 779.022583,254.506973 
	C794.710327,240.080978 810.331665,225.579163 826.215393,211.371292 
	C837.858215,200.956818 849.565308,190.569580 861.801453,180.873962 
	C877.561096,168.386429 893.865723,156.585724 909.957581,144.518524 
	C938.911194,122.806374 969.789368,104.132034 1001.956116,87.690498 
	C1018.946594,79.006065 1036.544922,71.440582 1054.159546,64.063980 
	C1080.803955,52.905987 1108.247925,43.906292 1136.312134,37.119225 
	C1158.491699,31.755320 1180.895264,27.250502 1203.314819,22.968971 
	C1219.851562,19.810911 1236.542114,17.394339 1253.224243,15.081330 
	C1267.685303,13.076304 1282.207153,11.423034 1296.745239,10.082726 
	C1314.300537,8.464272 1331.896729,7.278014 1349.483765,6.023708 
	C1360.514282,5.237018 1371.552734,4.473404 1382.601074,4.052360 
	C1396.694824,3.515262 1410.802124,3.332300 1424.903687,3.002832 
	C1426.402710,2.967804 1427.942261,3.166562 1429.384521,2.872431 
	C1430.023804,2.742099 1430.467529,1.653553 1431.000000,0.999978 
z"/>
<path fill="#EE0000" opacity="1.000000" stroke="none" 
	d="
M1226.000000,1025.000000 
	C1046.640869,1025.000000 867.281677,1025.000000 687.462524,1024.630127 
	C688.024292,1022.653931 688.794189,1020.797913 690.104004,1019.477356 
	C742.981628,966.164734 795.884583,912.877136 848.833984,859.635681 
	C917.996155,790.091980 987.149658,720.539490 1056.416504,651.099976 
	C1076.970093,630.495056 1097.874390,610.239197 1118.664917,589.871216 
	C1122.199463,586.408508 1125.903931,583.110107 1129.645386,579.869202 
	C1146.673950,565.118958 1163.569214,550.207825 1180.847290,535.754822 
	C1198.440918,521.037903 1217.821167,508.857666 1238.014771,498.075653 
	C1258.939209,486.903564 1280.790283,477.795074 1303.760742,471.709198 
	C1319.662964,467.496033 1335.591187,463.149933 1351.753052,460.211121 
	C1369.455444,456.992126 1387.411987,455.077026 1405.309204,453.048126 
	C1422.780640,451.067535 1440.300659,449.448700 1457.830688,448.071289 
	C1470.837402,447.049316 1483.888550,446.486267 1496.930908,446.047394 
	C1512.689575,445.517090 1528.459961,445.345703 1544.224854,444.996460 
	C1558.490967,444.680420 1572.755127,444.205048 1587.022827,444.040771 
	C1599.013062,443.902740 1611.007202,444.111420 1623.155273,444.496155 
	C1626.551636,445.550446 1629.792358,446.909424 1633.033203,446.910126 
	C2061.230225,447.004822 2489.427002,446.999908 2917.624023,447.001526 
	C2921.122803,447.001556 2924.621826,447.024658 2927.976074,447.342163 
	C2913.319336,462.514832 2898.911865,477.486359 2884.276611,492.231567 
	C2827.730225,549.203308 2771.166016,606.157532 2714.501953,663.012390 
	C2668.036133,709.634888 2621.400635,756.088501 2574.922363,802.698730 
	C2572.487793,805.140442 2570.094727,806.068542 2566.669922,806.071167 
	C2233.945557,806.327881 1901.221313,806.645630 1568.497070,807.083008 
	C1555.959229,807.099487 1543.390381,807.964722 1530.894653,809.087830 
	C1517.022461,810.334656 1503.143188,811.875122 1489.403076,814.120422 
	C1472.954346,816.808411 1457.085205,821.738770 1441.820923,828.584351 
	C1414.009277,841.057251 1390.473511,859.737427 1369.018677,880.768738 
	C1321.776733,927.078247 1275.311401,974.179932 1228.568359,1020.997620 
	C1227.473877,1022.093811 1226.845581,1023.655396 1226.000000,1025.000000 
z"/>
<path fill="#EE0000" opacity="1.000000" stroke="none" 
	d="
M3073.000000,1025.000000 
	C2861.973145,1025.000000 2650.946289,1025.000000 2439.501465,1024.661011 
	C2440.668457,1022.435120 2442.121582,1020.416016 2443.857422,1018.679749 
	C2780.414062,682.084595 3116.990479,345.509399 3453.566406,8.933543 
	C3454.744873,7.755138 3456.113770,6.707646 3457.044678,5.358164 
	C3457.933838,4.069265 3458.366699,2.465419 3459.000000,1.000001 
	C3670.166748,1.000000 3881.333252,0.997928 4092.500000,1.041317 
	C4094.000000,1.041625 4095.500000,1.666696 4096.647461,2.509276 
	C4095.019531,4.022666 4093.627686,4.909277 4092.486572,6.047552 
	C3941.637695,156.527695 3790.804932,307.024139 3639.978516,457.526947 
	C3621.223877,476.241455 3602.525146,495.012054 3583.769287,513.725159 
	C3443.312744,653.860046 3302.843750,793.982117 3162.391113,934.120667 
	C3133.373291,963.073669 3104.399902,992.070923 3075.450684,1021.092346 
	C3074.392090,1022.153687 3073.806152,1023.686768 3073.000000,1025.000000 
z"/>
<path fill="#000000" opacity="1.000000" stroke="none" 
	d="
M1430.531372,0.999978 
	C1430.467529,1.653553 1430.023804,2.742099 1429.384521,2.872431 
	C1427.942261,3.166562 1426.402710,2.967804 1424.903687,3.002832 
	C1410.802124,3.332300 1396.694824,3.515262 1382.601074,4.052360 
	C1371.552734,4.473404 1360.514282,5.237018 1349.483765,6.023708 
	C1331.896729,7.278014 1314.300537,8.464272 1296.745239,10.082726 
	C1282.207153,11.423034 1267.685303,13.076304 1253.224243,15.081330 
	C1236.542114,17.394339 1219.851562,19.810911 1203.314819,22.968971 
	C1180.895264,27.250502 1158.491699,31.755320 1136.312134,37.119225 
	C1108.247925,43.906292 1080.803955,52.905987 1054.159546,64.063980 
	C1036.544922,71.440582 1018.946594,79.006065 1001.956116,87.690498 
	C969.789368,104.132034 938.911194,122.806374 909.957581,144.518524 
	C893.865723,156.585724 877.561096,168.386429 861.801453,180.873962 
	C849.565308,190.569580 837.858215,200.956818 826.215393,211.371292 
	C810.331665,225.579163 794.710327,240.080978 779.022583,254.506973 
	C773.047852,260.001221 767.092102,265.524078 761.313843,271.222656 
	C731.447632,300.677002 701.656433,330.207489 671.809814,359.681732 
	C648.959473,382.246948 626.002380,404.704346 603.203613,427.321533 
	C551.180542,478.930237 499.242950,530.625183 447.237030,582.251160 
	C409.661011,619.552673 372.030945,656.799622 334.424957,694.070923 
	C297.055817,731.107544 259.686584,768.144104 222.317429,805.180786 
	C184.711456,842.452087 147.110062,879.727966 109.498581,916.993713 
	C74.728439,951.444214 39.950901,985.887207 5.155035,1020.311707 
	C4.129044,1021.326782 2.860842,1022.097046 1.352790,1022.990723 
	C1.000000,682.393982 1.000000,341.787964 1.000000,1.000000 
	C477.354218,1.000000 953.708496,1.000000 1430.531372,0.999978 
z"/>
<path fill="#000000" opacity="1.000000" stroke="none" 
	d="
M3073.468750,1025.000000 
	C3073.806152,1023.686768 3074.392090,1022.153687 3075.450684,1021.092346 
	C3104.399902,992.070923 3133.373291,963.073669 3162.391113,934.120667 
	C3302.843750,793.982117 3443.312744,653.860046 3583.769287,513.725159 
	C3602.525146,495.012054 3621.223877,476.241455 3639.978516,457.526947 
	C3790.804932,307.024139 3941.637695,156.527695 4092.486572,6.047552 
	C4093.627686,4.909277 4095.019531,4.022666 4096.647461,3.009261 
	C4097.000000,343.593842 4097.000000,684.187683 4097.000000,1025.000000 
	C3755.979248,1025.000000 3414.958252,1025.000000 3073.468750,1025.000000 
z"/>
<path fill="#000000" opacity="1.000000" stroke="none" 
	d="
M1226.468506,1025.000000 
	C1226.845581,1023.655396 1227.473877,1022.093811 1228.568359,1020.997620 
	C1275.311401,974.179932 1321.776733,927.078247 1369.018677,880.768738 
	C1390.473511,859.737427 1414.009277,841.057251 1441.820923,828.584351 
	C1457.085205,821.738770 1472.954346,816.808411 1489.403076,814.120422 
	C1503.143188,811.875122 1517.022461,810.334656 1530.894653,809.087830 
	C1543.390381,807.964722 1555.959229,807.099487 1568.497070,807.083008 
	C1901.221313,806.645630 2233.945557,806.327881 2566.669922,806.071167 
	C2570.094727,806.068542 2572.487793,805.140442 2574.922363,802.698730 
	C2621.400635,756.088501 2668.036133,709.634888 2714.501953,663.012390 
	C2771.166016,606.157532 2827.730225,549.203308 2884.276611,492.231567 
	C2898.911865,477.486359 2913.319336,462.514832 2928.310303,447.168884 
	C2928.681885,445.802307 2928.701172,444.190186 2928.446045,444.145508 
	C2926.989258,443.890564 2925.467285,444.001160 2923.967285,444.001160 
	C2492.308105,444.000061 2060.648682,443.999878 1628.989380,444.006958 
	C1626.992798,444.006989 1624.996216,444.111115 1622.999634,444.166595 
	C1611.007202,444.111420 1599.013062,443.902740 1587.022827,444.040771 
	C1572.755127,444.205048 1558.490967,444.680420 1544.224854,444.996460 
	C1528.459961,445.345703 1512.689575,445.517090 1496.930908,446.047394 
	C1483.888550,446.486267 1470.837402,447.049316 1457.830688,448.071289 
	C1440.300659,449.448700 1422.780640,451.067535 1405.309204,453.048126 
	C1387.411987,455.077026 1369.455444,456.992126 1351.753052,460.211121 
	C1335.591187,463.149933 1319.662964,467.496033 1303.760742,471.709198 
	C1280.790283,477.795074 1258.939209,486.903564 1238.014771,498.075653 
	C1217.821167,508.857666 1198.440918,521.037903 1180.847290,535.754822 
	C1163.569214,550.207825 1146.673950,565.118958 1129.645386,579.869202 
	C1125.903931,583.110107 1122.199463,586.408508 1118.664917,589.871216 
	C1097.874390,610.239197 1076.970093,630.495056 1056.416504,651.099976 
	C987.149658,720.539490 917.996155,790.091980 848.833984,859.635681 
	C795.884583,912.877136 742.981628,966.164734 690.104004,1019.477356 
	C688.794189,1020.797913 688.024292,1022.653931 687.001343,1024.630127 
	C652.979126,1025.000000 618.958191,1025.000000 584.468689,1025.000000 
	C584.845093,1023.655579 585.479614,1022.103394 586.568542,1020.999451 
	C595.345825,1012.101868 604.148804,1003.227783 613.059204,994.463684 
	C627.042358,980.710205 641.115356,967.048035 655.150635,953.347656 
	C669.066833,939.763733 682.985779,926.182556 696.899536,912.596130 
	C711.290100,898.543945 725.673950,884.484985 740.064148,870.432434 
	C754.096802,856.729187 768.135071,843.031860 782.168213,829.329163 
	C796.439758,815.393677 810.706726,801.453430 824.978088,787.517761 
	C839.011108,773.814941 853.047058,760.115234 867.081909,746.414307 
	C881.116699,732.713318 895.153381,719.014282 909.186523,705.311584 
	C923.458069,691.376038 937.724731,677.435547 951.996155,663.499817 
	C966.029053,649.796936 980.062134,636.094177 994.101013,622.397400 
	C1007.424194,609.398865 1020.682617,596.332642 1034.104614,583.436829 
	C1045.569824,572.421143 1056.892700,561.221191 1068.872681,550.784790 
	C1090.428467,532.006653 1112.280273,513.559631 1134.287231,495.310669 
	C1154.709961,478.375397 1176.918701,464.010895 1200.020386,450.979309 
	C1225.438843,436.640839 1251.925171,424.630585 1279.983154,416.732941 
	C1301.907349,410.561768 1324.206543,405.511688 1346.578979,401.211456 
	C1364.237915,397.817261 1382.241821,396.152313 1400.130981,394.045685 
	C1411.399902,392.718628 1422.724854,391.757111 1434.050903,391.050476 
	C1453.177490,389.857117 1472.322510,388.951355 1491.464233,388.014648 
	C1500.559448,387.569611 1509.662476,387.158386 1518.766235,387.032166 
	C1548.865967,386.614838 1578.967041,386.287170 1609.068604,386.012695 
	C1650.667847,385.633423 1692.267822,385.050964 1733.867554,385.043762 
	C2149.989258,384.971741 2566.111084,384.992279 2982.232910,385.100616 
	C2986.766846,385.101807 2989.857666,383.804810 2993.049072,380.615967 
	C3011.637695,362.041779 3030.451660,343.692932 3049.214355,325.293213 
	C3064.407715,310.393524 3079.636719,295.530273 3094.848389,280.649292 
	C3110.298096,265.535339 3125.745117,250.418625 3141.195068,235.304672 
	C3156.406738,220.423737 3171.621094,205.545731 3186.833008,190.664841 
	C3202.282715,175.550812 3217.729736,160.433899 3233.179688,145.319931 
	C3248.391602,130.439209 3263.606445,115.561813 3278.818115,100.680763 
	C3294.267822,85.566780 3309.713135,70.448135 3325.164062,55.335308 
	C3340.138428,40.688461 3355.126953,26.055817 3370.087646,11.394904 
	C3373.356201,8.191675 3376.533691,4.895408 3379.876465,1.321016 
	C3405.354248,1.000000 3430.708252,1.000000 3456.522461,1.350564 
	C3455.627197,3.328410 3454.390869,5.074547 3452.899902,6.565964 
	C3114.922363,344.578217 2776.926758,682.572388 2438.942383,1020.577881 
	C2437.548340,1021.972046 2436.310791,1023.522522 2435.000000,1025.000000 
	C2032.312378,1025.000000 1629.624878,1025.000000 1226.468506,1025.000000 
z"/>
<path fill="#EE0000" opacity="1.000000" stroke="none" 
	d="
M2435.398926,1025.000000 
	C2436.310791,1023.522522 2437.548340,1021.972046 2438.942383,1020.577881 
	C2776.926758,682.572388 3114.922363,344.578217 3452.899902,6.565964 
	C3454.390869,5.074547 3455.627197,3.328410 3456.991211,1.350564 
	C3457.444580,1.000000 3457.888916,1.000000 3458.666748,1.000001 
	C3458.366699,2.465419 3457.933838,4.069265 3457.044678,5.358164 
	C3456.113770,6.707646 3454.744873,7.755138 3453.566406,8.933543 
	C3116.990479,345.509399 2780.414062,682.084595 2443.857422,1018.679749 
	C2442.121582,1020.416016 2440.668457,1022.435120 2439.041504,1024.661011 
	C2437.932617,1025.000000 2436.865234,1025.000000 2435.398926,1025.000000 
z"/>
<path fill="#EE0000" opacity="1.000000" stroke="none" 
	d="
M1623.155273,444.496155 
	C1624.996216,444.111115 1626.992798,444.006989 1628.989380,444.006958 
	C2060.648682,443.999878 2492.308105,444.000061 2923.967285,444.001160 
	C2925.467285,444.001160 2926.989258,443.890564 2928.446045,444.145508 
	C2928.701172,444.190186 2928.681885,445.802307 2928.455078,446.863739 
	C2924.621826,447.024658 2921.122803,447.001556 2917.624023,447.001526 
	C2489.427002,446.999908 2061.230225,447.004822 1633.033203,446.910126 
	C1629.792358,446.909424 1626.551636,445.550446 1623.155273,444.496155 
z"/>
</svg>