<?xml version="1.0" standalone="no"?>
<!DOCTYPE svg PUBLIC "-//W3C//DTD SVG 20010904//EN"
 "http://www.w3.org/TR/2001/REC-SVG-20010904/DTD/svg10.dtd">
<svg version="1.0" xmlns="http://www.w3.org/2000/svg"
 width="7640.000000pt" height="4585.000000pt" viewBox="0 0 7640.000000 4585.000000"
 preserveAspectRatio="xMidYMid meet">

<g transform="translate(0.000000,4585.000000) scale(0.100000,-0.100000)"
fill="#000000" stroke="none">
<path d="M0 22925 l0 -22915 38195 0 38195 0 0 22915 0 22915 -38195 0 -38195
0 0 -22915z m38580 14275 c698 -16 1084 -38 1100 -61 3 -5 94 -11 203 -15 108
-4 197 -10 197 -14 0 -4 53 -10 117 -13 66 -4 119 -11 121 -17 2 -5 21 -10 42
-10 21 0 40 -5 42 -10 2 -6 55 -13 121 -17 64 -3 117 -9 117 -13 0 -4 53 -10
117 -13 72 -4 119 -11 124 -18 4 -8 23 -10 51 -7 31 4 54 0 78 -13 25 -14 56
-19 112 -19 43 0 78 -4 78 -9 0 -5 36 -12 80 -16 44 -4 80 -11 80 -15 0 -4 19
-11 43 -14 121 -16 197 -31 197 -38 0 -4 18 -8 40 -8 22 0 40 -4 40 -9 0 -5
11 -12 25 -15 14 -4 25 -11 25 -16 0 -6 7 -10 15 -10 8 0 15 7 15 15 0 19 11
19 36 0 10 -8 33 -15 51 -15 17 0 33 -5 35 -11 4 -12 26 -16 113 -25 27 -2 68
-13 90 -24 23 -11 62 -20 89 -20 27 0 63 -8 87 -20 22 -12 45 -20 52 -19 23 5
102 -13 124 -27 12 -8 34 -14 48 -14 15 0 33 -7 41 -15 18 -17 34 -20 34 -5 0
6 11 5 28 -4 15 -7 54 -19 87 -26 33 -8 66 -18 72 -23 7 -5 29 -9 49 -9 21 0
43 -6 51 -13 7 -8 39 -19 70 -26 32 -6 68 -18 80 -25 12 -8 36 -14 53 -14 16
0 30 -4 30 -10 0 -14 96 -40 148 -40 24 0 56 -6 70 -14 65 -33 131 -58 140
-52 6 3 28 -1 49 -10 21 -9 47 -20 58 -24 11 -4 47 -19 80 -33 33 -14 70 -28
83 -32 12 -3 22 -10 22 -15 0 -4 24 -10 53 -13 51 -4 179 -51 185 -68 2 -5 19
-9 38 -9 19 0 34 -4 34 -9 0 -5 10 -12 23 -16 12 -3 40 -13 62 -22 22 -8 49
-19 60 -23 11 -4 43 -18 71 -30 29 -12 57 -20 62 -16 6 3 28 -1 49 -10 21 -9
47 -20 58 -24 11 -4 47 -19 80 -33 33 -14 70 -28 83 -32 12 -3 22 -11 22 -16
0 -5 16 -9 35 -9 19 0 35 -4 35 -10 0 -5 15 -13 33 -19 53 -16 106 -37 113
-44 4 -4 16 -7 26 -7 10 0 21 -7 24 -15 4 -10 20 -15 45 -15 21 0 39 -4 39 -9
0 -5 11 -12 25 -15 14 -4 25 -11 25 -16 0 -6 16 -10 35 -10 19 0 35 -4 35 -10
0 -5 15 -13 33 -19 71 -22 111 -39 122 -54 14 -19 88 -48 131 -51 17 -1 38 -9
47 -18 9 -8 37 -24 61 -34 25 -11 46 -22 46 -26 0 -5 22 -8 48 -8 39 0 53 -5
70 -25 12 -14 28 -25 37 -25 20 0 85 -32 85 -42 0 -4 9 -8 20 -8 11 0 20 -4
20 -9 0 -5 10 -12 23 -16 12 -3 40 -13 62 -22 22 -8 49 -19 60 -23 11 -4 48
-20 81 -34 34 -14 66 -26 71 -26 6 0 20 -9 32 -19 12 -11 30 -17 41 -14 11 3
27 -2 35 -11 9 -9 23 -16 30 -16 20 0 85 -32 85 -42 0 -4 9 -8 20 -8 11 0 20
-4 20 -9 0 -5 10 -12 23 -16 42 -12 97 -38 97 -47 0 -4 7 -8 15 -8 15 0 24 -6
58 -36 7 -6 23 -15 35 -18 12 -4 22 -12 22 -17 0 -5 14 -9 30 -9 28 0 38 -5
73 -36 7 -6 23 -15 35 -18 12 -4 22 -12 22 -17 0 -5 16 -9 35 -9 19 0 35 -4
35 -9 0 -5 10 -12 23 -16 42 -12 97 -38 97 -47 0 -4 7 -8 15 -8 15 0 24 -6 58
-36 7 -6 23 -15 35 -18 12 -4 22 -12 22 -17 0 -5 7 -9 15 -9 8 0 15 -4 15 -8
0 -10 61 -38 101 -46 15 -3 29 -14 32 -26 3 -11 13 -20 22 -20 23 0 74 -28 99
-55 23 -24 146 -78 146 -64 0 12 21 11 40 -1 13 -9 13 -11 0 -20 -13 -9 -13
-11 0 -20 19 -12 37 -13 42 -2 2 5 21 1 43 -9 26 -12 33 -19 20 -19 -16 0 -17
-2 -6 -9 8 -5 20 -7 28 -4 9 4 16 -3 20 -16 3 -13 16 -23 32 -27 38 -8 101
-36 101 -45 0 -4 -8 -9 -17 -12 -16 -3 -16 -5 2 -11 11 -4 35 -14 53 -22 18
-8 41 -14 52 -14 10 0 25 -6 32 -13 7 -7 35 -23 62 -37 28 -14 58 -32 68 -40
10 -8 28 -17 41 -20 13 -4 23 -15 25 -27 2 -12 12 -25 23 -28 10 -4 19 -11 19
-16 0 -5 15 -9 33 -9 39 0 87 -20 87 -37 0 -6 9 -15 20 -18 11 -3 20 -11 20
-16 0 -5 12 -9 26 -9 16 0 35 -11 51 -30 17 -21 31 -29 44 -25 14 5 22 -2 33
-29 11 -28 23 -37 55 -46 29 -7 41 -16 43 -32 4 -25 28 -37 28 -14 0 24 8 20
50 -24 21 -22 46 -40 54 -40 9 0 16 -4 16 -9 0 -5 18 -16 40 -25 23 -9 43 -23
46 -31 4 -8 10 -15 14 -15 18 0 99 -56 100 -67 0 -7 11 -13 23 -13 13 0 32 -9
42 -20 10 -11 23 -20 29 -20 13 -1 66 -46 66 -57 1 -12 88 -63 107 -63 19 0
53 -28 53 -44 0 -12 45 -36 67 -36 7 0 13 -6 13 -12 1 -11 83 -71 141 -103 10
-5 20 -17 22 -27 3 -10 14 -18 25 -18 28 0 90 -37 103 -62 7 -13 17 -17 32
-13 17 5 19 4 7 -4 -8 -5 -12 -12 -10 -13 30 -23 64 -39 75 -34 8 3 25 -4 38
-15 14 -10 30 -19 36 -19 6 0 11 -4 11 -10 0 -5 -5 -10 -11 -10 -5 0 -7 -5 -4
-10 4 -6 11 -8 16 -4 12 7 99 -36 99 -49 0 -12 68 -77 80 -77 6 0 17 -6 24
-12 8 -7 24 -20 36 -28 12 -8 31 -23 42 -32 12 -10 25 -18 30 -18 4 0 8 -6 8
-13 0 -12 66 -43 82 -39 4 1 16 -10 27 -24 26 -33 87 -74 111 -74 10 0 20 -4
22 -9 2 -5 27 -20 56 -35 28 -14 52 -31 52 -36 0 -5 23 -21 50 -35 28 -14 54
-33 57 -41 3 -8 13 -12 23 -9 9 3 24 -3 35 -15 10 -11 24 -20 32 -20 7 0 13
-3 13 -8 0 -4 14 -13 30 -20 17 -8 36 -19 43 -25 15 -15 95 -67 101 -67 6 0
99 -62 106 -71 3 -4 29 -19 58 -33 30 -15 68 -42 85 -59 30 -31 92 -77 104
-77 12 0 229 -226 241 -250 20 -42 35 -63 72 -101 26 -27 36 -46 38 -75 1 -23
10 -45 21 -54 10 -8 22 -28 25 -44 4 -15 14 -35 21 -43 8 -8 15 -22 15 -32 0
-22 66 -209 84 -236 7 -11 18 -42 26 -70 7 -27 21 -65 31 -83 11 -18 19 -44
19 -57 0 -14 8 -39 18 -57 10 -18 22 -46 26 -63 4 -16 12 -33 18 -36 6 -4 14
-24 18 -45 5 -22 23 -77 40 -124 18 -47 35 -96 38 -110 2 -14 10 -32 17 -40 7
-8 18 -33 24 -55 6 -22 17 -49 25 -60 9 -11 16 -32 16 -47 0 -15 8 -42 18 -60
10 -18 22 -46 26 -62 4 -15 14 -35 21 -43 9 -9 15 -34 15 -67 0 -39 5 -58 21
-75 12 -12 25 -38 30 -57 6 -19 14 -34 19 -34 6 0 10 -16 10 -35 0 -21 6 -38
14 -41 8 -3 17 -22 21 -42 3 -20 15 -52 26 -70 10 -18 19 -46 19 -62 0 -16 4
-31 8 -34 5 -3 14 -31 21 -63 12 -55 38 -142 67 -228 7 -22 14 -49 14 -60 1
-67 14 -165 21 -165 5 0 9 -36 9 -80 0 -47 4 -80 10 -80 6 0 10 -18 10 -40 0
-22 -4 -40 -10 -40 -5 0 -10 -18 -10 -40 0 -22 -4 -40 -10 -40 -5 0 -10 -18
-10 -40 0 -33 -3 -40 -20 -40 -17 0 -20 -7 -20 -40 0 -22 5 -40 10 -40 6 0 10
-18 10 -40 0 -22 -4 -40 -10 -40 -5 0 -10 -10 -10 -23 0 -13 -6 -29 -12 -36
-10 -10 -10 -15 -2 -18 9 -3 8 -12 -3 -33 -8 -17 -12 -34 -8 -40 3 -5 2 -10
-4 -10 -6 0 -8 -7 -5 -15 4 -8 10 -12 15 -9 5 3 9 -2 9 -10 0 -32 -16 -14 -75
82 -32 53 -63 99 -67 100 -4 2 -8 7 -8 12 0 27 -545 817 -572 828 -5 2 -8 8
-8 14 0 6 -11 23 -25 40 -14 16 -25 24 -25 16 0 -11 -2 -11 -9 0 -7 11 -11 11
-23 -2 -9 -8 -24 -12 -37 -9 -12 3 -21 1 -21 -6 0 -6 -17 -11 -40 -11 -22 0
-40 5 -40 10 0 6 -18 10 -40 10 -22 0 -40 4 -40 9 0 5 -28 16 -62 25 -116 28
-172 46 -177 55 -4 5 -20 13 -36 17 -17 4 -45 16 -63 26 -18 10 -43 18 -57 18
-13 0 -39 9 -57 19 -18 10 -47 22 -65 26 -17 3 -37 13 -44 21 -6 8 -22 14 -35
14 -12 0 -29 7 -37 15 -8 7 -28 17 -43 21 -16 4 -44 16 -62 26 -18 10 -37 18
-43 18 -6 0 -16 6 -23 13 -7 7 -45 21 -84 31 -40 10 -72 22 -72 27 0 5 -13 9
-29 9 -16 0 -36 7 -45 15 -8 8 -29 18 -46 21 -17 4 -35 15 -41 25 -5 11 -17
19 -27 19 -37 1 -172 57 -172 72 0 4 -9 8 -20 8 -11 0 -20 4 -20 8 0 5 -18 17
-40 28 -22 10 -40 25 -40 32 0 6 -5 12 -10 12 -20 0 -146 136 -176 188 -16 29
-35 52 -41 52 -7 0 -13 9 -13 20 0 11 -4 20 -10 20 -5 0 -17 26 -26 57 -9 31
-23 63 -30 71 -8 7 -14 24 -14 36 0 13 -6 29 -14 35 -8 7 -17 27 -21 44 -13
68 -28 117 -36 117 -5 0 -9 15 -9 34 0 18 -6 39 -14 45 -8 7 -17 27 -21 44
-13 68 -28 117 -36 117 -5 0 -9 15 -9 34 0 18 -6 39 -14 45 -8 7 -17 27 -21
44 -13 68 -28 117 -36 117 -5 0 -9 14 -9 31 0 17 -12 54 -26 83 -49 94 -54
107 -54 135 0 15 -4 31 -9 36 -4 6 -14 33 -20 60 -30 121 -34 135 -42 135 -5
0 -9 15 -9 33 0 18 -5 38 -11 44 -16 16 -26 323 -10 323 15 0 14 73 -1 88 -15
15 -31 16 -22 0 4 -7 3 -8 -4 -4 -6 4 -9 13 -5 21 5 15 -12 21 -20 8 -2 -5 -2
-3 -1 4 7 30 -540 490 -976 820 -674 510 -1263 889 -2084 1342 -630 349 -1532
753 -2261 1013 -1505 537 -2959 835 -4600 944 -279 19 -1494 28 -1765 14
-1173 -63 -2232 -217 -3264 -476 -2165 -543 -4148 -1492 -5946 -2843 -221
-167 -286 -216 -345 -266 -156 -131 -268 -215 -277 -209 -6 4 -8 2 -5 -3 4 -6
-32 -44 -80 -84 -48 -41 -114 -98 -147 -126 -32 -29 -63 -50 -69 -46 -5 3 -7
1 -3 -5 3 -6 -13 -27 -37 -46 -45 -37 -64 -45 -51 -23 4 7 3 8 -2 4 -5 -5 -9
-14 -9 -22 0 -17 -141 -136 -151 -127 -4 4 -4 2 -1 -4 3 -6 -9 -26 -28 -44
-30 -30 -36 -32 -52 -19 -16 13 -17 12 -5 -3 11 -14 6 -23 -39 -65 -33 -31
-60 -47 -73 -45 -14 1 -17 -1 -9 -6 9 -5 -21 -41 -96 -115 -60 -59 -112 -107
-117 -107 -4 0 -3 5 4 12 7 7 12 21 13 33 0 11 3 14 6 7 7 -19 43 15 43 41 0
13 5 17 16 13 8 -3 12 -2 9 4 -3 6 1 10 9 10 9 0 13 6 10 13 -6 17 21 41 36
32 5 -3 10 0 10 8 0 8 7 20 15 27 15 13 21 35 8 27 -5 -3 -9 6 -9 19 -2 20 0
21 13 9 16 -17 27 -20 19 -6 -6 10 24 25 32 16 3 -3 0 -5 -7 -5 -7 0 -9 -5 -6
-11 11 -16 17 -4 22 43 3 24 13 50 22 59 10 9 23 31 31 48 7 17 19 31 26 31 8
0 22 17 32 38 9 20 32 52 50 69 17 18 32 37 32 43 0 5 10 10 23 10 15 0 26 9
35 29 7 15 37 54 67 86 30 31 55 61 55 65 0 5 15 25 34 44 18 20 39 50 46 67
8 17 18 28 26 25 8 -3 19 12 31 40 14 34 23 44 41 44 18 0 28 11 47 54 18 40
30 55 50 60 17 4 31 18 41 41 8 19 21 35 29 35 8 0 19 9 25 21 18 32 43 59 57
59 7 0 18 10 24 23 7 12 22 31 34 42 11 11 24 28 28 38 4 10 14 20 24 24 21 8
48 35 56 56 4 10 14 20 24 24 21 8 48 35 56 56 4 10 14 20 24 24 24 9 39 23
128 113 57 59 90 85 128 102 20 10 37 22 37 28 0 13 66 80 79 80 14 0 81 70
81 85 0 7 23 22 51 35 30 12 53 29 56 40 3 11 15 22 26 26 23 7 56 43 57 61 0
6 16 17 35 23 19 6 44 25 56 41 11 16 27 29 35 29 8 0 34 19 58 43 23 24 57
49 74 56 23 10 32 20 32 36 0 16 9 26 30 35 16 7 46 28 66 46 19 19 42 34 50
34 9 0 34 19 57 43 23 23 59 50 80 59 20 10 37 24 37 32 0 7 13 19 30 26 16 7
46 28 66 46 19 19 40 34 45 34 9 0 21 8 54 38 7 6 21 12 29 12 9 0 16 4 16 8
0 5 18 17 40 27 22 10 40 24 40 32 0 7 7 13 15 13 8 0 15 4 15 9 0 5 10 13 22
17 23 7 31 13 81 59 18 17 55 41 82 55 28 14 56 30 63 37 7 7 18 13 23 13 9 0
21 8 54 38 7 6 21 12 29 12 9 0 16 4 16 9 0 5 13 14 30 21 16 7 46 28 66 46
19 19 40 34 45 34 9 0 21 8 54 38 7 6 21 12 29 12 9 0 16 4 16 8 0 5 18 17 39
27 22 10 42 24 45 31 3 8 14 14 24 14 10 0 27 8 38 18 22 20 108 62 127 62 7
0 22 8 33 18 11 9 42 28 69 42 28 14 56 30 63 37 7 7 18 13 23 13 9 0 21 8 54
38 7 6 27 12 44 12 17 0 31 4 31 9 0 5 10 13 22 17 20 6 31 13 63 42 7 6 21
12 29 12 9 0 16 4 16 8 0 9 55 35 98 47 12 4 22 11 22 16 0 5 9 9 20 9 11 0
20 4 20 8 0 5 18 17 39 27 22 10 42 24 45 31 3 8 20 14 41 14 19 0 35 4 35 8
0 9 55 35 98 47 12 4 22 11 22 16 0 5 9 9 20 9 11 0 20 4 20 8 0 9 55 35 98
47 12 4 22 11 22 16 0 5 16 9 35 9 19 0 35 4 35 9 0 5 10 13 22 17 20 6 31 13
63 42 7 6 27 12 44 12 17 0 31 4 31 9 0 5 10 13 23 16 12 4 49 18 82 32 33 14
69 29 80 33 73 28 104 44 109 56 4 9 22 14 56 14 27 0 50 4 50 9 0 5 10 13 22
17 20 6 31 13 63 42 7 6 27 12 43 12 17 0 32 4 34 9 6 17 134 64 186 68 28 3
52 9 52 13 0 5 10 12 23 15 12 4 49 18 82 32 33 14 69 29 80 33 11 4 38 15 60
23 22 9 50 19 63 22 12 4 22 11 22 16 0 5 14 9 30 9 17 0 41 6 53 14 12 7 48
19 80 25 31 7 63 19 71 27 8 8 26 14 41 14 14 0 36 6 48 14 12 7 48 19 80 25
31 7 63 19 71 27 8 8 26 14 41 14 14 0 36 6 48 14 12 7 48 19 80 25 31 7 63
18 70 25 7 7 37 14 67 15 29 0 56 5 59 10 4 5 29 15 56 22 28 6 62 18 78 26
16 8 27 9 27 3 0 -15 16 -12 34 5 8 8 26 15 41 15 14 0 36 6 48 14 22 14 82
27 145 31 17 1 40 9 50 18 12 11 36 17 67 17 29 0 66 8 91 21 24 11 58 21 76
21 18 0 45 7 61 15 16 8 27 9 27 3 0 -15 16 -12 34 5 8 8 27 15 43 15 15 0 37
7 47 15 25 19 36 19 36 0 0 -8 7 -15 15 -15 8 0 15 4 15 9 0 13 57 31 96 31
22 0 34 5 34 14 0 10 22 16 80 21 44 4 80 11 80 16 0 5 18 9 40 9 22 0 40 4
40 9 0 5 36 12 80 16 44 4 80 11 80 16 0 5 36 9 80 9 64 0 80 3 80 15 0 12 15
15 79 15 45 0 81 4 83 10 2 6 55 13 121 17 64 3 117 9 117 13 0 4 53 10 117
13 66 4 119 11 121 17 2 5 21 10 42 10 21 0 40 5 42 10 2 6 55 13 121 17 64 3
117 9 117 13 0 4 89 10 197 14 109 4 200 10 203 15 15 22 389 43 1070 60 162
4 311 8 330 9 19 1 226 -3 460 -8z m-11895 -5299 c-3 -6 -11 -11 -17 -11 -6 0
-6 6 2 15 14 17 26 13 15 -4z m-65 -95 c0 -2 -8 -10 -17 -17 -16 -13 -17 -12
-4 4 13 16 21 21 21 13z m-46 -35 c3 -5 -2 -15 -12 -22 -15 -12 -16 -12 -5 2
7 9 10 19 6 22 -3 4 -4 7 0 7 3 0 8 -4 11 -9z m-34 -16 c0 -12 -19 -12 -23 0
-4 9 -1 12 9 8 7 -3 14 -7 14 -8z m-30 -58 c0 -2 -10 -12 -22 -23 l-23 -19 19
23 c18 21 26 27 26 19z m-80 -81 c0 -2 -6 -9 -14 -15 -11 -9 -16 -9 -22 0 -4
7 -3 9 4 5 6 -3 13 -2 17 4 6 10 15 14 15 6z m-40 -40 c0 -2 -8 -10 -17 -17
-16 -13 -17 -12 -4 4 13 16 21 21 21 13z m-80 -80 c0 -2 -8 -10 -17 -17 -16
-13 -17 -12 -4 4 13 16 21 21 21 13z m-120 -130 c0 -2 -8 -10 -17 -17 -16 -13
-17 -12 -4 4 13 16 21 21 21 13z m1625 -7667 c50 -5 138 -22 197 -35 l107 -25
5 -52 c12 -122 17 -198 12 -205 -3 -5 -37 2 -76 15 -194 65 -449 87 -585 51
-165 -44 -290 -121 -357 -219 -152 -224 -32 -466 272 -552 220 -62 435 -46
658 50 46 19 87 32 91 27 10 -11 -13 -252 -25 -264 -17 -16 -170 -61 -259 -77
-122 -21 -356 -13 -474 16 -385 97 -592 335 -567 656 12 163 63 275 175 385
183 181 497 268 826 229z m2237 -18 c171 -44 279 -103 389 -211 111 -109 165
-226 175 -380 12 -168 -45 -325 -160 -448 -151 -160 -355 -242 -604 -242 -244
0 -463 88 -627 254 -173 174 -220 391 -135 619 78 209 299 367 593 423 95 18
268 11 369 -15z m8658 18 c152 -13 292 -37 306 -52 15 -15 28 -253 15 -261 -5
-4 -43 5 -84 19 -117 39 -254 57 -432 58 -186 1 -256 -12 -380 -73 -96 -46
-173 -118 -212 -199 -25 -50 -28 -67 -28 -156 0 -79 4 -108 20 -140 70 -142
280 -240 540 -252 140 -6 233 8 368 57 l87 32 0 99 0 99 -277 2 -278 3 0 115
0 115 394 3 c309 2 396 -1 403 -10 4 -7 8 -133 7 -280 l0 -268 -33 -25 c-50
-38 -212 -111 -310 -140 -137 -39 -216 -48 -376 -42 -179 6 -300 35 -445 106
-231 113 -349 289 -349 521 0 363 261 602 734 674 53 8 220 5 330 -5z m3510
-14 c86 -16 264 -68 288 -83 13 -9 37 -256 26 -273 -3 -5 -31 4 -62 20 -67 34
-185 72 -297 97 -60 13 -123 17 -255 17 -196 -1 -302 -17 -388 -59 -129 -63
-110 -167 37 -208 67 -19 258 -35 411 -36 131 0 281 -22 383 -56 234 -78 329
-251 243 -439 -49 -107 -170 -191 -341 -236 -113 -30 -398 -38 -581 -15 -131
16 -338 62 -391 88 -27 13 -28 16 -41 143 -7 71 -10 135 -8 142 4 10 19 7 63
-15 83 -42 197 -78 326 -104 150 -30 475 -33 577 -5 165 45 225 144 118 196
-80 38 -166 51 -398 61 -253 10 -341 21 -448 56 -188 62 -276 164 -276 324 -1
66 4 85 32 143 20 40 50 81 75 102 87 75 244 131 432 154 110 13 372 6 475
-14z m2263 10 c186 -32 343 -109 458 -224 190 -189 231 -451 109 -697 -78
-158 -250 -288 -455 -344 -114 -31 -304 -38 -416 -16 -179 37 -332 118 -454
240 -154 156 -208 344 -156 548 48 188 162 317 366 414 179 85 363 111 548 79z
m2384 4 c176 -24 357 -107 475 -218 238 -223 248 -601 21 -841 -144 -153 -323
-227 -573 -237 -115 -4 -148 -2 -223 16 -186 44 -337 129 -451 252 -199 215
-210 525 -27 757 155 196 486 311 778 271z m-14817 -351 c151 -183 286 -345
300 -361 l25 -29 299 361 298 361 98 0 c80 0 99 -3 104 -16 3 -9 6 -287 6
-618 0 -455 -3 -605 -12 -614 -18 -18 -212 -16 -227 1 -7 10 -12 138 -13 412
l-3 398 -245 -294 -245 -294 -57 -3 c-48 -3 -60 0 -78 20 -12 13 -124 146
-248 296 -124 149 -230 272 -234 272 -4 0 -9 -183 -10 -407 l-3 -408 -95 -3
c-52 -2 -105 0 -117 3 l-23 5 0 619 c0 340 3 621 7 624 3 4 50 7 102 7 l96 0
275 -332z m2304 316 c3 -9 6 -287 6 -618 0 -455 -3 -605 -12 -614 -16 -16
-210 -16 -226 0 -9 9 -12 159 -12 614 0 331 3 609 6 618 9 24 229 24 238 0z
m1642 -419 l449 -435 5 432 5 433 115 0 115 0 3 -619 c2 -489 0 -621 -10 -628
-7 -4 -49 -8 -94 -8 -65 0 -85 4 -103 19 -12 11 -174 167 -359 347 -185 181
-381 371 -434 423 l-98 95 0 -436 c0 -388 -2 -437 -16 -442 -26 -10 -184 -7
-205 4 -18 10 -19 28 -19 624 0 337 3 616 7 619 3 4 48 7 99 7 l92 0 448 -435z
m12973 156 c157 -153 358 -348 446 -434 l160 -155 5 432 5 431 118 3 117 3 -2
-628 -3 -628 -88 -3 -88 -3 -61 58 c-34 32 -240 231 -457 442 l-396 383 -5
-438 -5 -439 -104 -3 c-67 -2 -108 1 -117 9 -19 16 -21 1218 -2 1237 8 8 45
12 101 12 l89 0 287 -279z"/>
<path d="M26970 32240 c-9 -6 -10 -10 -3 -10 6 0 15 5 18 10 8 12 4 12 -15 0z"/>
<path d="M26970 32210 c0 -5 5 -10 11 -10 5 0 7 5 4 10 -3 6 -8 10 -11 10 -2
0 -4 -4 -4 -10z"/>
<path d="M26890 32150 c0 -5 5 -10 10 -10 6 0 10 5 10 10 0 6 -4 10 -10 10 -5
0 -10 -4 -10 -10z"/>
<path d="M26905 32111 c-3 -5 -1 -12 5 -16 5 -3 10 1 10 9 0 18 -6 21 -15 7z"/>
<path d="M26809 32003 c-13 -16 -12 -17 4 -4 16 13 21 21 13 21 -2 0 -10 -8
-17 -17z"/>
<path d="M51570 29675 c0 -8 4 -15 10 -15 5 0 7 7 4 15 -4 8 -8 15 -10 15 -2
0 -4 -7 -4 -15z"/>
<path d="M52348 28595 c2 -14 6 -25 8 -25 2 0 4 11 4 25 0 14 -4 25 -9 25 -4
0 -6 -11 -3 -25z"/>
<path d="M29760 23464 c-99 -17 -145 -31 -217 -65 -101 -48 -178 -120 -219
-204 -24 -51 -29 -72 -29 -140 0 -71 4 -88 33 -147 141 -286 620 -360 901
-137 99 77 161 213 146 319 -22 159 -174 305 -370 355 -62 16 -201 27 -245 19z"/>
<path d="M44260 23464 c-220 -38 -368 -129 -436 -271 -23 -48 -28 -71 -28
-138 -1 -71 3 -88 32 -147 148 -301 673 -363 930 -110 82 81 116 154 117 252
0 65 -4 84 -33 142 -78 159 -257 261 -477 272 -44 3 -91 3 -105 0z"/>
<path d="M46645 23461 c-191 -32 -345 -131 -411 -266 -25 -51 -29 -72 -29
-140 0 -70 4 -89 32 -145 178 -361 845 -357 1015 6 65 140 33 282 -92 397 -66
61 -154 109 -245 132 -74 19 -204 26 -270 16z"/>
</g>
</svg>
