<?xml version="1.0" encoding="UTF-8"?>
<svg xmlns="http://www.w3.org/2000/svg" xmlns:xlink="http://www.w3.org/1999/xlink" width="1280px" height="800px" viewBox="0 0 1279 800" version="1.1">
<g id="surface1">
<rect x="0" y="0" width="1279" height="800" style="fill:rgb(45.490196%,67.45098%,87.45098%);fill-opacity:1;stroke:none;"/>
<path style=" stroke:none;fill-rule:nonzero;fill:rgb(100%,100%,100%);fill-opacity:1;" d="M 0 266.671875 L 1279 266.671875 L 1279 533.34375 L 0 533.34375 Z M 0 266.671875 "/>
<path style="fill-rule:nonzero;fill:rgb(96.470588%,70.588235%,5.490196%);fill-opacity:1;stroke-width:1.1116;stroke-linecap:butt;stroke-linejoin:miter;stroke:rgb(52.156863%,20.392157%,3.921569%);stroke-opacity:1;stroke-miterlimit:4;" d="M 396.840794 251.308594 L 425.295641 313.303223 C 425.295641 313.303223 425.786747 314.487305 426.573495 314.157715 C 427.365129 313.833008 426.871579 312.648926 426.871579 312.648926 L 403.156763 248.693848 M 402.479965 272.8125 C 402.133014 282.23877 407.933444 287.424316 407.173573 295.844727 C 406.416145 304.265137 411.038898 309.025879 412.111513 312.297363 C 413.184128 315.571289 410.950938 317.529297 411.913604 317.998047 C 412.876271 318.461914 414.984851 315.874023 414.295837 311.220703 C 413.609265 306.564941 410.078675 305.183105 410.904515 294.904785 C 411.737686 284.619141 406.69957 282.224121 407.928557 272.844238 " transform="matrix(1.59875,0,0,1.6,0,0)"/>
<path style="fill-rule:nonzero;fill:rgb(96.470588%,70.588235%,5.490196%);fill-opacity:1;stroke-width:1.1116;stroke-linecap:butt;stroke-linejoin:miter;stroke:rgb(52.156863%,20.392157%,3.921569%);stroke-opacity:1;stroke-miterlimit:4;" d="M 396.837815 251.310125 L 425.294622 313.300587 C 425.294622 313.300587 425.785122 314.48476 426.573865 314.160694 C 427.36393 313.833439 426.872495 312.647011 426.872495 312.647011 L 403.160597 248.691143 M 402.478213 272.812337 C 402.132833 282.238714 407.928963 287.427314 407.171405 295.845838 C 406.414782 304.266619 411.038893 309.026358 412.113223 312.296797 C 413.184907 315.573616 410.952026 317.531747 411.914421 317.997227 C 412.87775 318.464963 414.984709 315.877211 414.295346 311.218523 C 413.611978 306.567922 410.07435 305.184575 410.907181 294.898291 C 411.737366 284.618388 406.6991 282.223523 407.926119 272.844198 " transform="matrix(1.477051,0.612293,-0.611815,1.478206,201.632822,-214.46921)"/>
<path style="fill-rule:nonzero;fill:rgb(96.470588%,70.588235%,5.490196%);fill-opacity:1;stroke-width:1.1116;stroke-linecap:butt;stroke-linejoin:miter;stroke:rgb(52.156863%,20.392157%,3.921569%);stroke-opacity:1;stroke-miterlimit:4;" d="M 396.839385 251.30713 L 425.29531 313.30088 C 425.29531 313.30088 425.783591 314.487146 426.57469 314.158705 C 427.36406 313.835446 426.872325 312.649181 426.872325 312.649181 L 403.157811 248.693422 M 402.478312 272.813118 C 402.130956 282.241005 407.92996 287.424953 407.168515 295.844427 C 406.413977 304.263899 411.040507 309.025187 412.111703 312.297454 C 413.184623 315.574901 410.950834 317.532477 411.916052 317.996665 C 412.877814 318.46431 414.98405 315.878152 414.298518 311.2224 C 413.611259 306.56492 410.076607 305.186419 410.907861 294.901746 C 411.737389 284.615347 406.70236 282.223676 407.928746 272.842076 " transform="matrix(1.130487,1.13137,-1.130487,1.13137,469.926956,-335.391053)"/>
<path style="fill-rule:nonzero;fill:rgb(96.470588%,70.588235%,5.490196%);fill-opacity:1;stroke-width:1.1116;stroke-linecap:butt;stroke-linejoin:miter;stroke:rgb(52.156863%,20.392157%,3.921569%);stroke-opacity:1;stroke-miterlimit:4;" d="M 396.839314 251.309129 L 425.294241 313.301152 C 425.294241 313.301152 425.78455 314.490691 426.572239 314.158451 C 427.364824 313.833527 426.872645 312.648503 426.872645 312.648503 L 403.15799 248.692695 M 402.476952 272.812574 C 402.128185 282.241659 407.930612 287.429897 407.170547 295.842337 C 406.414443 304.264351 411.04145 309.023895 412.113847 312.297848 C 413.18531 315.574059 410.952647 317.531902 411.911764 317.997942 C 412.876327 318.463593 414.983511 315.877245 414.296082 311.220934 C 413.609974 306.567815 410.075838 305.185911 410.905945 294.900996 C 411.737372 284.619273 406.7005 282.220866 407.927813 272.846264 " transform="matrix(0.611815,1.478206,-1.477051,0.612293,764.037046,-344.356274)"/>
<path style=" stroke:none;fill-rule:nonzero;fill:rgb(52.156863%,20.392157%,3.921569%);fill-opacity:1;" d="M 646.390625 439.054688 C 647.117188 453.539062 655.324219 459.953125 653.707031 473.160156 C 657.253906 462.71875 648.71875 454.625 649.203125 439.203125 M 636.972656 401.195312 L 668.128906 469.320312 L 642.019531 399.097656 "/>
<path style=" stroke:none;fill-rule:nonzero;fill:rgb(52.156863%,20.392157%,3.921569%);fill-opacity:1;" d="M 630.933594 438.71875 C 626.0625 452.386719 631.195312 461.453125 624.65625 473.027344 C 631.917969 464.742188 627.132812 454 633.472656 439.9375 M 636.707031 400.136719 L 639.445312 475.003906 L 642.171875 400.136719 "/>
<path style=" stroke:none;fill-rule:nonzero;fill:rgb(52.156863%,20.392157%,3.921569%);fill-opacity:1;" d="M 616.78125 432.496094 C 607.054688 443.25 608.324219 453.597656 597.859375 461.785156 C 607.734375 456.910156 607.421875 445.152344 618.660156 434.589844 M 636.867188 399.0625 L 610.765625 469.273438 L 641.917969 401.148438 "/>
<path style=" stroke:none;fill-rule:nonzero;fill:rgb(52.156863%,20.392157%,3.921569%);fill-opacity:1;" d="M 606.082031 421.316406 C 592.984375 427.53125 590.203125 437.574219 577.402344 441.132812 C 588.394531 440.410156 592.601562 429.421875 607.019531 423.976562 M 637.429688 398.121094 L 586.460938 452.996094 L 641.296875 401.988281 "/>
<path style="fill-rule:nonzero;fill:rgb(96.470588%,70.588235%,5.490196%);fill-opacity:1;stroke-width:1.1116;stroke-linecap:butt;stroke-linejoin:miter;stroke:rgb(52.156863%,20.392157%,3.921569%);stroke-opacity:1;stroke-miterlimit:4;" d="M 396.84082 251.309617 L 425.29541 313.303851 C 425.29541 313.303851 425.783691 314.488858 426.577148 314.159011 C 427.363281 313.83405 426.870117 312.649042 426.870117 312.649042 L 403.156738 248.69527 M 402.478027 272.813233 C 402.131348 282.239543 407.932129 287.424257 407.172852 295.843921 C 406.416016 304.266028 411.04248 309.025606 412.111816 312.302091 C 413.183594 315.571247 410.95459 317.533229 411.911621 317.997459 C 412.878418 318.464132 414.985352 315.876661 414.296875 311.219703 C 413.61084 306.565188 410.078125 305.184715 410.908203 294.903245 C 411.73584 284.616888 406.699219 282.224883 407.929687 272.844996 " transform="matrix(0.000000000000000098,1.6,-1.59875,0.000000000000000098,1039.1875,-240)"/>
<path style="fill-rule:nonzero;fill:rgb(96.470588%,70.588235%,5.490196%);fill-opacity:1;stroke-width:1.1116;stroke-linecap:butt;stroke-linejoin:miter;stroke:rgb(52.156863%,20.392157%,3.921569%);stroke-opacity:1;stroke-miterlimit:4;" d="M 396.837919 251.309984 L 425.29587 313.302115 C 425.29587 313.302115 425.784883 314.482698 426.574881 314.163404 C 427.364329 313.836404 426.872511 312.649048 426.872511 312.649048 L 403.158017 248.692112 M 402.478279 272.812338 C 402.12966 282.242026 407.928481 287.424865 407.171867 295.844047 C 406.416188 304.265486 411.040759 309.024964 412.113111 312.296481 C 413.185079 315.573448 410.951322 317.530105 411.913443 317.996375 C 412.878754 318.463967 414.98631 315.87727 414.29888 311.219205 C 413.612385 306.563398 410.076496 305.185037 410.906925 294.902554 C 411.738674 284.616879 406.700549 282.221097 407.926769 272.8431 " transform="matrix(-0.611815,1.478206,-1.477051,-0.612293,1253.489156,-38.209528)"/>
<path style="fill-rule:nonzero;fill:rgb(96.470588%,70.588235%,5.490196%);fill-opacity:1;stroke-width:1.1116;stroke-linecap:butt;stroke-linejoin:miter;stroke:rgb(52.156863%,20.392157%,3.921569%);stroke-opacity:1;stroke-miterlimit:4;" d="M 396.841988 251.309609 L 425.296243 313.299677 C 425.296243 313.299677 425.781997 314.489777 426.57284 314.161954 C 427.363683 313.834131 426.872749 312.64921 426.872749 312.64921 L 403.158371 248.693927 M 402.480439 272.813093 C 402.131811 282.242435 407.929683 287.425731 407.171358 295.844611 C 406.416488 304.263493 411.041555 309.026668 412.111852 312.296317 C 413.183878 315.574601 410.953345 317.53216 411.915472 317.997102 C 412.875872 318.46377 414.983542 315.879258 414.294374 311.222968 C 413.610386 306.564954 410.076384 305.185419 410.906514 294.901395 C 411.738371 284.615645 406.699747 282.225221 407.927442 272.842852 " transform="matrix(-1.130487,1.13137,-1.130487,-1.13137,1374.316528,230.294374)"/>
<path style="fill-rule:nonzero;fill:rgb(96.470588%,70.588235%,5.490196%);fill-opacity:1;stroke-width:1.1116;stroke-linecap:butt;stroke-linejoin:miter;stroke:rgb(52.156863%,20.392157%,3.921569%);stroke-opacity:1;stroke-miterlimit:4;" d="M 396.840548 251.307473 L 425.295327 313.299839 C 425.295327 313.299839 425.784307 314.488056 426.573571 314.159625 C 427.361901 313.833449 426.874243 312.648422 426.874243 312.648422 L 403.159015 248.695039 M 402.478548 272.811945 C 402.129736 282.24146 407.930533 287.429487 407.169634 295.842691 C 406.415895 304.264146 411.040385 309.023067 412.113316 312.300315 C 413.184924 315.574372 410.951173 317.532156 411.911078 317.998468 C 412.876431 318.464395 414.984286 315.878384 414.297097 311.222946 C 413.609908 306.567507 410.077568 305.186284 410.907512 294.901678 C 411.737456 284.617073 406.701378 282.224524 407.926605 272.843567 " transform="matrix(-1.477051,0.612293,-0.611815,-1.478206,1383.274746,524.634417)"/>
<path style=" stroke:none;fill-rule:nonzero;fill:rgb(52.156863%,20.392157%,3.921569%);fill-opacity:1;" d="M 600.472656 406.894531 C 586 407.617188 579.59375 415.835938 566.398438 414.21875 C 576.828125 417.765625 584.917969 409.226562 600.324219 409.710938 M 638.304688 397.46875 L 570.238281 428.648438 L 640.402344 402.527344 "/>
<path style=" stroke:none;fill-rule:nonzero;fill:rgb(52.156863%,20.392157%,3.921569%);fill-opacity:1;" d="M 600.8125 391.421875 C 587.15625 386.550781 578.09375 391.683594 566.527344 385.144531 C 574.8125 392.410156 585.542969 387.621094 599.59375 393.964844 M 639.363281 397.207031 L 564.554688 399.945312 L 639.363281 402.675781 "/>
<path style=" stroke:none;fill-rule:nonzero;fill:rgb(52.156863%,20.392157%,3.921569%);fill-opacity:1;" d="M 607.03125 377.261719 C 596.285156 367.53125 585.949219 368.800781 577.761719 358.324219 C 582.632812 368.207031 594.386719 367.894531 604.9375 379.144531 M 640.4375 397.367188 L 570.277344 371.246094 L 638.351562 402.417969 "/>
<path style=" stroke:none;fill-rule:nonzero;fill:rgb(52.156863%,20.392157%,3.921569%);fill-opacity:1;" d="M 618.203125 366.554688 C 611.992188 353.453125 601.953125 350.664062 598.398438 337.855469 C 599.121094 348.855469 610.097656 353.0625 615.542969 367.492188 M 641.378906 397.929688 L 586.546875 346.921875 L 637.511719 401.796875 "/>
<path style="fill-rule:nonzero;fill:rgb(96.470588%,70.588235%,5.490196%);fill-opacity:1;stroke-width:1.1116;stroke-linecap:butt;stroke-linejoin:miter;stroke:rgb(52.156863%,20.392157%,3.921569%);stroke-opacity:1;stroke-miterlimit:4;" d="M 396.840794 251.308594 L 425.295641 313.303223 C 425.295641 313.303223 425.786747 314.487305 426.573495 314.157715 C 427.365129 313.833008 426.871579 312.648926 426.871579 312.648926 L 403.156763 248.693848 M 402.479965 272.8125 C 402.133014 282.23877 407.933444 287.424316 407.173573 295.844727 C 406.416145 304.265137 411.038898 309.025879 412.111513 312.297363 C 413.184128 315.571289 410.950938 317.529297 411.913604 317.998047 C 412.876271 318.461914 414.984851 315.874023 414.295837 311.220703 C 413.609265 306.564941 410.078675 305.183105 410.904515 294.904785 C 411.737686 284.619141 406.69957 282.224121 407.928557 272.844238 " transform="matrix(-1.59875,0.000000000000000196,-0.000000000000000196,-1.6,1279,800)"/>
<path style="fill-rule:nonzero;fill:rgb(96.470588%,70.588235%,5.490196%);fill-opacity:1;stroke-width:1.1116;stroke-linecap:butt;stroke-linejoin:miter;stroke:rgb(52.156863%,20.392157%,3.921569%);stroke-opacity:1;stroke-miterlimit:4;" d="M 396.837815 251.310125 L 425.294622 313.300587 C 425.294622 313.300587 425.785122 314.48476 426.573865 314.160694 C 427.36393 313.833439 426.872495 312.647011 426.872495 312.647011 L 403.160597 248.691143 M 402.478213 272.812337 C 402.132833 282.238714 407.928963 287.427314 407.171405 295.845838 C 406.414782 304.266619 411.038893 309.026358 412.113223 312.296797 C 413.184907 315.573616 410.952026 317.531747 411.914421 317.997227 C 412.87775 318.464963 414.984709 315.877211 414.295346 311.218523 C 413.611978 306.567922 410.07435 305.184575 410.907181 294.898291 C 411.737366 284.618388 406.6991 282.223523 407.926119 272.844198 " transform="matrix(-1.477051,-0.612293,0.611815,-1.478206,1077.367178,1014.46921)"/>
<path style="fill-rule:nonzero;fill:rgb(96.470588%,70.588235%,5.490196%);fill-opacity:1;stroke-width:1.1116;stroke-linecap:butt;stroke-linejoin:miter;stroke:rgb(52.156863%,20.392157%,3.921569%);stroke-opacity:1;stroke-miterlimit:4;" d="M 396.839385 251.30713 L 425.29531 313.30088 C 425.29531 313.30088 425.783591 314.487146 426.57469 314.158705 C 427.36406 313.835446 426.872325 312.649181 426.872325 312.649181 L 403.157811 248.693422 M 402.478312 272.813118 C 402.130956 282.241005 407.92996 287.424953 407.168515 295.844427 C 406.413977 304.263899 411.040507 309.025187 412.111703 312.297454 C 413.184623 315.574901 410.950834 317.532477 411.916052 317.996665 C 412.877814 318.46431 414.98405 315.878152 414.298518 311.2224 C 413.611259 306.56492 410.076607 305.186419 410.907861 294.901746 C 411.737389 284.615347 406.70236 282.223676 407.928746 272.842076 " transform="matrix(-1.130487,-1.13137,1.130487,-1.13137,809.073044,1135.391053)"/>
<path style="fill-rule:nonzero;fill:rgb(96.470588%,70.588235%,5.490196%);fill-opacity:1;stroke-width:1.1116;stroke-linecap:butt;stroke-linejoin:miter;stroke:rgb(52.156863%,20.392157%,3.921569%);stroke-opacity:1;stroke-miterlimit:4;" d="M 396.839314 251.309129 L 425.294241 313.301152 C 425.294241 313.301152 425.78455 314.490691 426.572239 314.158451 C 427.364824 313.833527 426.872645 312.648503 426.872645 312.648503 L 403.15799 248.692695 M 402.476952 272.812574 C 402.128185 282.241659 407.930612 287.429897 407.170547 295.842337 C 406.414443 304.264351 411.04145 309.023895 412.113847 312.297848 C 413.18531 315.574059 410.952647 317.531902 411.911764 317.997942 C 412.876327 318.463593 414.983511 315.877245 414.296082 311.220934 C 413.609974 306.567815 410.075838 305.185911 410.905945 294.900996 C 411.737372 284.619273 406.7005 282.220866 407.927813 272.846264 " transform="matrix(-0.611815,-1.478206,1.477051,-0.612293,514.962954,1144.356274)"/>
<path style=" stroke:none;fill-rule:nonzero;fill:rgb(52.156863%,20.392157%,3.921569%);fill-opacity:1;" d="M 632.609375 360.945312 C 631.882812 346.460938 623.675781 340.046875 625.292969 326.839844 C 621.746094 337.28125 630.28125 345.375 629.796875 360.796875 M 642.027344 398.804688 L 610.871094 330.679688 L 636.980469 400.902344 "/>
<path style=" stroke:none;fill-rule:nonzero;fill:rgb(52.156863%,20.392157%,3.921569%);fill-opacity:1;" d="M 648.066406 361.28125 C 652.9375 347.613281 647.804688 338.546875 654.34375 326.972656 C 647.082031 335.257812 651.867188 346 645.527344 360.0625 M 642.292969 399.863281 L 639.554688 324.996094 L 636.828125 399.863281 "/>
<path style=" stroke:none;fill-rule:nonzero;fill:rgb(52.156863%,20.392157%,3.921569%);fill-opacity:1;" d="M 662.21875 367.503906 C 671.945312 356.75 670.675781 346.402344 681.140625 338.214844 C 671.265625 343.089844 671.578125 354.847656 660.339844 365.410156 M 642.132812 400.9375 L 668.234375 330.726562 L 637.082031 398.851562 "/>
<path style=" stroke:none;fill-rule:nonzero;fill:rgb(52.156863%,20.392157%,3.921569%);fill-opacity:1;" d="M 672.917969 378.683594 C 686.015625 372.46875 688.796875 362.425781 701.597656 358.867188 C 690.605469 359.589844 686.398438 370.578125 671.980469 376.023438 M 641.570312 401.878906 L 692.539062 347.003906 L 637.703125 398.011719 "/>
<path style="fill-rule:nonzero;fill:rgb(96.470588%,70.588235%,5.490196%);fill-opacity:1;stroke-width:1.1116;stroke-linecap:butt;stroke-linejoin:miter;stroke:rgb(52.156863%,20.392157%,3.921569%);stroke-opacity:1;stroke-miterlimit:4;" d="M 396.84082 251.309617 L 425.29541 313.303851 C 425.29541 313.303851 425.783691 314.488858 426.577148 314.159011 C 427.363281 313.83405 426.870117 312.649042 426.870117 312.649042 L 403.156738 248.69527 M 402.478027 272.813233 C 402.131348 282.239543 407.932129 287.424257 407.172852 295.843921 C 406.416016 304.266028 411.04248 309.025606 412.111816 312.302091 C 413.183594 315.571247 410.95459 317.533229 411.911621 317.997459 C 412.878418 318.464132 414.985352 315.876661 414.296875 311.219703 C 413.61084 306.565188 410.078125 305.184715 410.908203 294.903245 C 411.73584 284.616888 406.699219 282.224883 407.929687 272.844996 " transform="matrix(-0.000000000000000294,-1.6,1.59875,-0.000000000000000294,239.8125,1040)"/>
<path style="fill-rule:nonzero;fill:rgb(96.470588%,70.588235%,5.490196%);fill-opacity:1;stroke-width:1.1116;stroke-linecap:butt;stroke-linejoin:miter;stroke:rgb(52.156863%,20.392157%,3.921569%);stroke-opacity:1;stroke-miterlimit:4;" d="M 396.837919 251.309984 L 425.29587 313.302115 C 425.29587 313.302115 425.784883 314.482698 426.574881 314.163404 C 427.364329 313.836404 426.872511 312.649048 426.872511 312.649048 L 403.158017 248.692112 M 402.478279 272.812338 C 402.12966 282.242026 407.928481 287.424865 407.171867 295.844047 C 406.416188 304.265486 411.040759 309.024964 412.113111 312.296481 C 413.185079 315.573448 410.951322 317.530105 411.913443 317.996375 C 412.878754 318.463967 414.98631 315.87727 414.29888 311.219205 C 413.612385 306.563398 410.076496 305.185037 410.906925 294.902554 C 411.738674 284.616879 406.700549 282.221097 407.926769 272.8431 " transform="matrix(0.611815,-1.478206,1.477051,0.612293,25.510844,838.209528)"/>
<path style="fill-rule:nonzero;fill:rgb(96.470588%,70.588235%,5.490196%);fill-opacity:1;stroke-width:1.1116;stroke-linecap:butt;stroke-linejoin:miter;stroke:rgb(52.156863%,20.392157%,3.921569%);stroke-opacity:1;stroke-miterlimit:4;" d="M 396.841988 251.309609 L 425.296243 313.299677 C 425.296243 313.299677 425.781997 314.489777 426.57284 314.161954 C 427.363683 313.834131 426.872749 312.64921 426.872749 312.64921 L 403.158371 248.693927 M 402.480439 272.813093 C 402.131811 282.242435 407.929683 287.425731 407.171358 295.844611 C 406.416488 304.263493 411.041555 309.026668 412.111852 312.296317 C 413.183878 315.574601 410.953345 317.53216 411.915472 317.997102 C 412.875872 318.46377 414.983542 315.879258 414.294374 311.222968 C 413.610386 306.564954 410.076384 305.185419 410.906514 294.901395 C 411.738371 284.615645 406.699747 282.225221 407.927442 272.842852 " transform="matrix(1.130487,-1.13137,1.130487,1.13137,-95.316528,569.705626)"/>
<path style="fill-rule:nonzero;fill:rgb(96.470588%,70.588235%,5.490196%);fill-opacity:1;stroke-width:1.1116;stroke-linecap:butt;stroke-linejoin:miter;stroke:rgb(52.156863%,20.392157%,3.921569%);stroke-opacity:1;stroke-miterlimit:4;" d="M 396.840548 251.307473 L 425.295327 313.299839 C 425.295327 313.299839 425.784307 314.488056 426.573571 314.159625 C 427.361901 313.833449 426.874243 312.648422 426.874243 312.648422 L 403.159015 248.695039 M 402.478548 272.811945 C 402.129736 282.24146 407.930533 287.429487 407.169634 295.842691 C 406.415895 304.264146 411.040385 309.023067 412.113316 312.300315 C 413.184924 315.574372 410.951173 317.532156 411.911078 317.998468 C 412.876431 318.464395 414.984286 315.878384 414.297097 311.222946 C 413.609908 306.567507 410.077568 305.186284 410.907512 294.901678 C 411.737456 284.617073 406.701378 282.224524 407.926605 272.843567 " transform="matrix(1.477051,-0.612293,0.611815,1.478206,-104.274746,275.365583)"/>
<path style=" stroke:none;fill-rule:nonzero;fill:rgb(52.156863%,20.392157%,3.921569%);fill-opacity:1;" d="M 678.527344 393.105469 C 693 392.382812 699.40625 384.164062 712.601562 385.78125 C 702.171875 382.234375 694.082031 390.773438 678.675781 390.289062 M 640.695312 402.53125 L 708.761719 371.351562 L 638.597656 397.472656 "/>
<path style=" stroke:none;fill-rule:nonzero;fill:rgb(52.156863%,20.392157%,3.921569%);fill-opacity:1;" d="M 678.1875 408.578125 C 691.84375 413.449219 700.90625 408.316406 712.472656 414.855469 C 704.1875 407.589844 693.457031 412.378906 679.40625 406.035156 M 639.636719 402.792969 L 714.445312 400.054688 L 639.636719 397.324219 "/>
<path style=" stroke:none;fill-rule:nonzero;fill:rgb(52.156863%,20.392157%,3.921569%);fill-opacity:1;" d="M 671.96875 422.738281 C 682.714844 432.46875 693.050781 431.199219 701.238281 441.675781 C 696.367188 431.792969 684.613281 432.105469 674.0625 420.855469 M 638.5625 402.632812 L 708.722656 428.753906 L 640.648438 397.582031 "/>
<path style=" stroke:none;fill-rule:nonzero;fill:rgb(52.156863%,20.392157%,3.921569%);fill-opacity:1;" d="M 660.796875 433.445312 C 667.007812 446.546875 677.046875 449.335938 680.601562 462.144531 C 679.878906 451.144531 668.902344 446.9375 663.457031 432.507812 M 637.621094 402.070312 L 692.453125 453.078125 L 641.488281 398.203125 "/>
<path style="fill-rule:nonzero;fill:rgb(96.470588%,70.588235%,5.490196%);fill-opacity:1;stroke-width:1.5;stroke-linecap:butt;stroke-linejoin:miter;stroke:rgb(52.156863%,20.392157%,3.921569%);stroke-opacity:1;stroke-miterlimit:4;" d="M 427.778049 250 C 427.778049 265.341797 415.341575 277.77832 400 277.77832 C 384.658425 277.77832 372.221951 265.341797 372.221951 250 C 372.221951 234.658203 384.658425 222.22168 400 222.22168 C 415.341575 222.22168 427.778049 234.658203 427.778049 250 Z M 427.778049 250 " transform="matrix(1.59875,0,0,1.6,0,0)"/>
<path style=" stroke:none;fill-rule:nonzero;fill:rgb(51.764706%,20.784314%,6.666667%);fill-opacity:1;" d="M 654.636719 390.496094 C 651.605469 390.496094 648.703125 391.8125 646.992188 394.542969 C 650.410156 397.617188 657.957031 397.953125 663.078125 394.195312 C 660.863281 391.808594 657.671875 390.496094 654.636719 390.496094 Z M 654.585938 391.195312 C 657.542969 391.140625 660.296875 392.5 660.683594 393.84375 C 657.269531 397.605469 651.808594 397.28125 648.394531 394.542969 C 649.894531 392.15625 652.292969 391.242188 654.585938 391.195312 Z M 654.585938 391.195312 "/>
<path style=" stroke:none;fill-rule:nonzero;fill:rgb(52.156863%,20.392157%,3.921569%);fill-opacity:1;" d="M 655.214844 388.382812 C 650.777344 388.382812 649.753906 389.410156 647.699219 391.121094 C 645.648438 392.828125 644.625 392.484375 644.285156 392.828125 C 643.945312 393.171875 644.285156 394.195312 644.96875 393.851562 C 645.648438 393.511719 647.015625 392.828125 649.0625 391.121094 C 651.117188 389.410156 653.164062 389.410156 655.210938 389.410156 C 661.363281 389.410156 664.78125 394.535156 665.460938 394.195312 C 666.144531 393.847656 662.042969 388.382812 655.210938 388.382812 Z M 655.214844 388.382812 "/>
<path style=" stroke:none;fill-rule:nonzero;fill:rgb(52.156863%,20.392157%,3.921569%);fill-opacity:1;" d="M 667.507812 390.429688 C 659.652344 383.59375 649.75 382.570312 644.28125 387.699219 C 642.941406 389.488281 642.082031 391.410156 641.730469 393.410156 C 641.046875 397.300781 642.265625 401.507812 645.308594 405.820312 C 644.96875 405.816406 644.28125 406.160156 643.9375 406.503906 C 641.226562 401.308594 640.269531 395.976562 641.15625 390.910156 C 641.386719 389.582031 641.753906 388.28125 642.226562 387.007812 C 649.738281 380.863281 659.988281 380.175781 667.5 390.429688 Z M 667.507812 390.429688 "/>
<path style=" stroke:none;fill-rule:nonzero;fill:rgb(52.156863%,20.392157%,3.921569%);fill-opacity:1;" d="M 657.605469 393.839844 C 657.605469 395.539062 656.226562 396.917969 654.535156 396.917969 C 652.835938 396.917969 651.457031 395.539062 651.457031 393.839844 C 651.457031 392.136719 652.835938 390.765625 654.535156 390.765625 C 656.226562 390.765625 657.605469 392.136719 657.605469 393.839844 Z M 657.605469 393.839844 "/>
<path style=" stroke:none;fill-rule:nonzero;fill:rgb(52.156863%,20.392157%,3.921569%);fill-opacity:1;" d="M 663.414062 395.902344 C 657.613281 400.351562 651.796875 400.003906 648.390625 397.953125 C 644.972656 395.902344 644.972656 395.222656 645.648438 395.222656 C 646.335938 395.222656 647.011719 395.902344 649.753906 397.273438 C 652.484375 398.640625 656.582031 398.640625 663.410156 395.902344 Z M 663.414062 395.902344 "/>
<path style=" stroke:none;fill-rule:nonzero;fill:rgb(52.156863%,20.392157%,3.921569%);fill-opacity:1;" d="M 632.707031 406.148438 C 631.246094 406.410156 630.207031 407.710938 630.207031 409.191406 C 630.207031 410.886719 631.609375 412.242188 633.304688 412.242188 C 634.308594 412.242188 635.226562 411.769531 635.800781 410.945312 C 636.988281 411.835938 638.625 411.929688 639.5 411.945312 C 639.636719 411.945312 639.808594 411.945312 639.902344 411.945312 C 640.773438 411.929688 642.414062 411.835938 643.59375 410.945312 C 644.167969 411.769531 645.089844 412.242188 646.09375 412.242188 C 647.789062 412.242188 649.191406 410.886719 649.191406 409.191406 C 649.191406 407.710938 648.152344 406.410156 646.695312 406.148438 C 647.511719 406.4375 648.042969 407.226562 648.042969 408.09375 C 648.042969 409.226562 647.128906 410.144531 645.996094 410.144531 C 644.90625 410.144531 644.011719 409.28125 643.945312 408.191406 C 643.613281 408.859375 642.292969 410.839844 639.699219 410.945312 C 637.105469 410.839844 635.789062 408.859375 635.453125 408.191406 C 635.386719 409.28125 634.496094 410.144531 633.40625 410.144531 C 632.273438 410.144531 631.355469 409.226562 631.355469 408.09375 C 631.355469 407.226562 631.882812 406.4375 632.707031 406.148438 Z M 632.707031 406.148438 "/>
<path style=" stroke:none;fill-rule:nonzero;fill:rgb(52.156863%,20.392157%,3.921569%);fill-opacity:1;" d="M 636.050781 415.25 C 632.632812 415.25 631.277344 418.34375 628.207031 420.398438 C 629.914062 419.71875 631.257812 418.367188 633.648438 417 C 636.042969 415.628906 638.082031 417.300781 639.445312 417.300781 L 639.496094 417.300781 C 640.859375 417.300781 642.898438 415.628906 645.289062 417 C 647.683594 418.371094 649.078125 419.71875 650.785156 420.398438 C 647.707031 418.34375 646.308594 415.25 642.894531 415.25 C 642.207031 415.25 640.859375 415.617188 639.496094 416.300781 L 639.445312 416.300781 C 638.082031 415.617188 636.726562 415.25 636.050781 415.25 Z M 636.050781 415.25 "/>
<path style=" stroke:none;fill-rule:nonzero;fill:rgb(52.156863%,20.392157%,3.921569%);fill-opacity:1;" d="M 634.890625 419.296875 C 633.546875 419.355469 631.761719 419.625 629.199219 420.394531 C 635.355469 419.03125 636.707031 421.09375 639.4375 421.09375 L 639.492188 421.09375 C 642.226562 421.09375 643.582031 419.03125 649.730469 420.394531 C 642.902344 418.34375 641.546875 419.695312 639.492188 419.695312 L 639.4375 419.695312 C 638.160156 419.695312 637.140625 419.195312 634.890625 419.296875 Z M 634.890625 419.296875 "/>
<path style=" stroke:none;fill-rule:nonzero;fill:rgb(52.156863%,20.392157%,3.921569%);fill-opacity:1;" d="M 629.507812 420.351562 C 629.109375 420.355469 628.675781 420.363281 628.210938 420.398438 C 635.382812 421.085938 631.9375 425.199219 639.449219 425.199219 L 639.5 425.199219 C 647.011719 425.199219 643.617188 421.085938 650.789062 420.398438 C 643.277344 419.722656 645.648438 424.148438 639.5 424.148438 L 639.449219 424.148438 C 633.6875 424.148438 635.457031 420.28125 629.507812 420.351562 Z M 629.507812 420.351562 "/>
<path style=" stroke:none;fill-rule:nonzero;fill:rgb(52.156863%,20.392157%,3.921569%);fill-opacity:1;" d="M 645.652344 431.457031 C 645.652344 428.058594 642.902344 425.300781 639.503906 425.300781 C 636.113281 425.300781 633.355469 428.058594 633.355469 431.457031 C 634.03125 428.605469 636.582031 426.59375 639.503906 426.59375 C 642.4375 426.59375 644.980469 428.605469 645.652344 431.457031 Z M 645.652344 431.457031 "/>
<path style=" stroke:none;fill-rule:nonzero;fill:rgb(52.156863%,20.392157%,3.921569%);fill-opacity:1;" d="M 611.890625 390.429688 C 619.746094 383.59375 629.652344 382.570312 635.121094 387.699219 C 636.457031 389.488281 637.316406 391.410156 637.664062 393.410156 C 638.355469 397.300781 637.136719 401.507812 634.089844 405.820312 C 634.433594 405.816406 635.121094 406.160156 635.460938 406.503906 C 638.167969 401.308594 639.132812 395.976562 638.238281 390.910156 C 638.011719 389.582031 637.644531 388.28125 637.171875 387.007812 C 629.65625 380.863281 619.414062 380.175781 611.894531 390.429688 Z M 611.890625 390.429688 "/>
<path style=" stroke:none;fill-rule:nonzero;fill:rgb(52.156863%,20.392157%,3.921569%);fill-opacity:1;" d="M 624.179688 388.382812 C 628.625 388.382812 629.648438 389.410156 631.703125 391.121094 C 633.746094 392.828125 634.773438 392.484375 635.117188 392.828125 C 635.453125 393.171875 635.117188 394.195312 634.433594 393.851562 C 633.746094 393.511719 632.378906 392.828125 630.339844 391.121094 C 628.285156 389.410156 626.234375 389.410156 624.183594 389.410156 C 618.035156 389.410156 614.617188 394.535156 613.941406 394.195312 C 613.253906 393.847656 617.359375 388.382812 624.183594 388.382812 Z M 624.179688 388.382812 "/>
<path style=" stroke:none;fill-rule:nonzero;fill:rgb(51.764706%,20.784314%,6.666667%);fill-opacity:1;" d="M 623.96875 390.496094 C 620.945312 390.496094 618.035156 391.8125 616.328125 394.542969 C 619.746094 397.617188 627.292969 397.953125 632.417969 394.195312 C 630.199219 391.808594 627.003906 390.496094 623.96875 390.496094 Z M 623.921875 391.195312 C 626.875 391.140625 629.632812 392.5 630.015625 393.84375 C 626.605469 397.605469 621.144531 397.28125 617.726562 394.542969 C 619.226562 392.15625 621.628906 391.242188 623.921875 391.195312 Z M 623.921875 391.195312 "/>
<path style=" stroke:none;fill-rule:nonzero;fill:rgb(52.156863%,20.392157%,3.921569%);fill-opacity:1;" d="M 627.449219 393.839844 C 627.449219 395.539062 626.074219 396.917969 624.375 396.917969 C 622.675781 396.917969 621.300781 395.539062 621.300781 393.839844 C 621.300781 392.136719 622.675781 390.765625 624.375 390.765625 C 626.074219 390.765625 627.449219 392.136719 627.449219 393.839844 Z M 627.449219 393.839844 "/>
<path style=" stroke:none;fill-rule:nonzero;fill:rgb(52.156863%,20.392157%,3.921569%);fill-opacity:1;" d="M 615.984375 395.902344 C 621.789062 400.351562 627.597656 400.003906 631.011719 397.953125 C 634.429688 395.902344 634.429688 395.222656 633.746094 395.222656 C 633.066406 395.222656 632.382812 395.902344 629.648438 397.273438 C 626.917969 398.640625 622.816406 398.640625 615.992188 395.902344 Z M 615.984375 395.902344 "/>
</g>
</svg>
